<mxfile host="app.diagrams.net" modified="2022-11-03T18:51:13.687Z" agent="5.0 (X11; Linux x86_64) AppleWebKit/537.36 (KHTML, like Gecko) Chrome/106.0.0.0 Safari/537.36" etag="CF9G7stYbZ0GIGNvY9pa" version="20.5.1" type="github" pages="2">
  <diagram id="nxlNkdYTlS7XlazafqMG" name="Page-1">
    <mxGraphModel dx="1865" dy="511" grid="1" gridSize="10" guides="1" tooltips="1" connect="1" arrows="1" fold="1" page="1" pageScale="1" pageWidth="827" pageHeight="1169" math="0" shadow="0">
      <root>
        <mxCell id="0" />
        <mxCell id="1" parent="0" />
        <mxCell id="FicKMC1Pp75WxK-jACHa-3" style="edgeStyle=orthogonalEdgeStyle;rounded=0;orthogonalLoop=1;jettySize=auto;html=1;exitX=1;exitY=0.5;exitDx=0;exitDy=0;entryX=0;entryY=0.5;entryDx=0;entryDy=0;" parent="1" source="MWgJ6E9S9EeTvWoqgsjv-12" target="MWgJ6E9S9EeTvWoqgsjv-15" edge="1">
          <mxGeometry relative="1" as="geometry" />
        </mxCell>
        <mxCell id="MWgJ6E9S9EeTvWoqgsjv-12" value="&lt;p style=&quot;line-height: 1.2;&quot;&gt;Inputs&lt;/p&gt;" style="rounded=1;whiteSpace=wrap;html=1;verticalAlign=top;fontStyle=1" parent="1" vertex="1">
          <mxGeometry x="-770" y="150" width="230" height="170" as="geometry" />
        </mxCell>
        <mxCell id="MWgJ6E9S9EeTvWoqgsjv-9" value="AlienVault" style="ellipse;shape=cloud;whiteSpace=wrap;html=1;" parent="1" vertex="1">
          <mxGeometry x="-754.5" y="200.26999999999998" width="180" height="40" as="geometry" />
        </mxCell>
        <mxCell id="FicKMC1Pp75WxK-jACHa-4" style="edgeStyle=orthogonalEdgeStyle;rounded=0;orthogonalLoop=1;jettySize=auto;html=1;exitX=1;exitY=0.5;exitDx=0;exitDy=0;entryX=0;entryY=0.5;entryDx=0;entryDy=0;" parent="1" source="MWgJ6E9S9EeTvWoqgsjv-15" target="MWgJ6E9S9EeTvWoqgsjv-16" edge="1">
          <mxGeometry relative="1" as="geometry" />
        </mxCell>
        <mxCell id="FicKMC1Pp75WxK-jACHa-8" style="edgeStyle=orthogonalEdgeStyle;rounded=0;orthogonalLoop=1;jettySize=auto;html=1;exitX=0.5;exitY=1;exitDx=0;exitDy=0;entryX=0;entryY=0.5;entryDx=0;entryDy=0;entryPerimeter=0;" parent="1" source="MWgJ6E9S9EeTvWoqgsjv-15" target="MWgJ6E9S9EeTvWoqgsjv-17" edge="1">
          <mxGeometry relative="1" as="geometry" />
        </mxCell>
        <mxCell id="MWgJ6E9S9EeTvWoqgsjv-15" value="&lt;p style=&quot;line-height: 1.2;&quot;&gt;Data Streaming&lt;/p&gt;&lt;p style=&quot;line-height: 1.2;&quot;&gt;&lt;br&gt;&lt;/p&gt;" style="rounded=1;whiteSpace=wrap;html=1;verticalAlign=top;fontStyle=1" parent="1" vertex="1">
          <mxGeometry x="-460" y="165" width="200" height="140" as="geometry" />
        </mxCell>
        <mxCell id="FicKMC1Pp75WxK-jACHa-5" style="edgeStyle=orthogonalEdgeStyle;rounded=0;orthogonalLoop=1;jettySize=auto;html=1;exitX=1;exitY=0.5;exitDx=0;exitDy=0;entryX=0;entryY=0.5;entryDx=0;entryDy=0;" parent="1" source="MWgJ6E9S9EeTvWoqgsjv-16" target="MWgJ6E9S9EeTvWoqgsjv-24" edge="1">
          <mxGeometry relative="1" as="geometry" />
        </mxCell>
        <mxCell id="FicKMC1Pp75WxK-jACHa-7" value="" style="edgeStyle=orthogonalEdgeStyle;rounded=0;orthogonalLoop=1;jettySize=auto;html=1;" parent="1" source="MWgJ6E9S9EeTvWoqgsjv-16" target="MWgJ6E9S9EeTvWoqgsjv-17" edge="1">
          <mxGeometry relative="1" as="geometry" />
        </mxCell>
        <mxCell id="MWgJ6E9S9EeTvWoqgsjv-16" value="Stream&lt;br&gt;&amp;nbsp;Processing" style="ellipse;whiteSpace=wrap;html=1;verticalAlign=top;fontStyle=1" parent="1" vertex="1">
          <mxGeometry x="-185" y="145" width="220" height="180" as="geometry" />
        </mxCell>
        <mxCell id="MWgJ6E9S9EeTvWoqgsjv-17" value="Storage / querying" style="shape=cylinder3;whiteSpace=wrap;html=1;boundedLbl=1;backgroundOutline=1;size=15;verticalAlign=top;fontStyle=1" parent="1" vertex="1">
          <mxGeometry x="-180" y="380" width="210" height="150" as="geometry" />
        </mxCell>
        <mxCell id="MWgJ6E9S9EeTvWoqgsjv-23" value="" style="group;fontStyle=0" parent="1" vertex="1" connectable="0">
          <mxGeometry x="-720" y="250" width="120" height="50" as="geometry" />
        </mxCell>
        <mxCell id="MWgJ6E9S9EeTvWoqgsjv-19" value="" style="rounded=0;whiteSpace=wrap;html=1;" parent="MWgJ6E9S9EeTvWoqgsjv-23" vertex="1">
          <mxGeometry x="17.142857142857142" width="102.85714285714285" height="33.18400530944084" as="geometry" />
        </mxCell>
        <mxCell id="MWgJ6E9S9EeTvWoqgsjv-21" value="" style="rounded=0;whiteSpace=wrap;html=1;" parent="MWgJ6E9S9EeTvWoqgsjv-23" vertex="1">
          <mxGeometry x="8.571428571428571" y="8.519993363198944" width="102.85714285714285" height="33.18400530944084" as="geometry" />
        </mxCell>
        <mxCell id="MWgJ6E9S9EeTvWoqgsjv-22" value="CSV files" style="rounded=0;whiteSpace=wrap;html=1;fontStyle=0" parent="MWgJ6E9S9EeTvWoqgsjv-23" vertex="1">
          <mxGeometry y="16.815994690559155" width="102.85714285714285" height="33.18400530944084" as="geometry" />
        </mxCell>
        <mxCell id="MWgJ6E9S9EeTvWoqgsjv-4" value="Kafka" style="rounded=1;whiteSpace=wrap;html=1;" parent="1" vertex="1">
          <mxGeometry x="-410" y="220" width="100" height="30" as="geometry" />
        </mxCell>
        <mxCell id="MWgJ6E9S9EeTvWoqgsjv-10" value="Flink" style="rounded=1;whiteSpace=wrap;html=1;" parent="1" vertex="1">
          <mxGeometry x="-130" y="225" width="100" height="30" as="geometry" />
        </mxCell>
        <mxCell id="MWgJ6E9S9EeTvWoqgsjv-5" value="Cassandra" style="shape=cylinder3;whiteSpace=wrap;html=1;boundedLbl=1;backgroundOutline=1;size=15;" parent="1" vertex="1">
          <mxGeometry x="-120" y="450" width="90" height="50" as="geometry" />
        </mxCell>
        <mxCell id="MWgJ6E9S9EeTvWoqgsjv-24" value="&lt;p style=&quot;line-height: 1.2;&quot;&gt;Data Visualisation&lt;/p&gt;&lt;p style=&quot;line-height: 1.2;&quot;&gt;&lt;br&gt;&lt;/p&gt;" style="rounded=1;whiteSpace=wrap;html=1;verticalAlign=top;fontStyle=1" parent="1" vertex="1">
          <mxGeometry x="120" y="165" width="220" height="140" as="geometry" />
        </mxCell>
        <mxCell id="MWgJ6E9S9EeTvWoqgsjv-7" value="Grafana" style="rounded=1;whiteSpace=wrap;html=1;" parent="1" vertex="1">
          <mxGeometry x="180" y="215" width="100" height="30" as="geometry" />
        </mxCell>
        <mxCell id="FicKMC1Pp75WxK-jACHa-11" value="Store raw data" style="text;html=1;strokeColor=none;fillColor=none;align=center;verticalAlign=middle;whiteSpace=wrap;rounded=0;" parent="1" vertex="1">
          <mxGeometry x="-390" y="470" width="60" height="30" as="geometry" />
        </mxCell>
      </root>
    </mxGraphModel>
  </diagram>
  <diagram id="WgEe9fqnrv0zfawT-3C7" name="Page-2">
    <mxGraphModel dx="1865" dy="1680" grid="1" gridSize="10" guides="1" tooltips="1" connect="1" arrows="1" fold="1" page="1" pageScale="1" pageWidth="827" pageHeight="1169" backgroundImage="{&quot;src&quot;:&quot;data:page/id,nxlNkdYTlS7XlazafqMG&quot;}" math="0" shadow="0">
      <root>
        <mxCell id="0" />
        <mxCell id="1" parent="0" />
        <mxCell id="4VeNu21edwgGOJSyqB53-1" value="" style="shape=image;verticalLabelPosition=bottom;labelBackgroundColor=default;verticalAlign=top;aspect=fixed;imageAspect=0;image=https://www.docker.com/wp-content/uploads/2020/12/Whale-Logo332_5.png;opacity=30;" parent="1" vertex="1">
          <mxGeometry x="-380" y="34.5" width="855.66" height="639.36" as="geometry" />
        </mxCell>
        <mxCell id="UCtxVSDQXwQRLY7gghUz-3" value="&lt;p style=&quot;line-height: 1.2;&quot;&gt;Docker Container&lt;/p&gt;" style="rounded=1;whiteSpace=wrap;html=1;verticalAlign=top;fontStyle=1;fillColor=none;image=https://www.docker.com/wp-content/uploads/2020/12/Whale-Logo332_5.png;shadow=0;" parent="1" vertex="1">
          <mxGeometry x="-520" y="-30" width="1090" height="730" as="geometry" />
        </mxCell>
        <mxCell id="UCtxVSDQXwQRLY7gghUz-1" style="edgeStyle=orthogonalEdgeStyle;rounded=0;orthogonalLoop=1;jettySize=auto;html=1;exitX=1;exitY=0.5;exitDx=0;exitDy=0;entryX=0;entryY=0.5;entryDx=0;entryDy=0;" parent="1" source="UCtxVSDQXwQRLY7gghUz-2" target="UCtxVSDQXwQRLY7gghUz-10" edge="1">
          <mxGeometry relative="1" as="geometry" />
        </mxCell>
        <mxCell id="UCtxVSDQXwQRLY7gghUz-2" value="&lt;p style=&quot;line-height: 1.2;&quot;&gt;Inputs&lt;/p&gt;" style="rounded=1;whiteSpace=wrap;html=1;verticalAlign=top;fontStyle=1;fillColor=#e1d5e7;strokeColor=#9673a6;" parent="1" vertex="1">
          <mxGeometry x="-770" y="150" width="230" height="170" as="geometry" />
        </mxCell>
        <mxCell id="UCtxVSDQXwQRLY7gghUz-4" value="AlienVault" style="ellipse;shape=cloud;whiteSpace=wrap;html=1;" parent="1" vertex="1">
          <mxGeometry x="-742.25" y="180" width="174.5" height="50" as="geometry" />
        </mxCell>
        <mxCell id="UCtxVSDQXwQRLY7gghUz-8" style="edgeStyle=orthogonalEdgeStyle;rounded=0;orthogonalLoop=1;jettySize=auto;html=1;exitX=1;exitY=0.5;exitDx=0;exitDy=0;entryX=0;entryY=0.5;entryDx=0;entryDy=0;" parent="1" source="UCtxVSDQXwQRLY7gghUz-10" target="UCtxVSDQXwQRLY7gghUz-13" edge="1">
          <mxGeometry relative="1" as="geometry" />
        </mxCell>
        <mxCell id="UCtxVSDQXwQRLY7gghUz-9" style="edgeStyle=orthogonalEdgeStyle;rounded=0;orthogonalLoop=1;jettySize=auto;html=1;exitX=0.5;exitY=1;exitDx=0;exitDy=0;entryX=0;entryY=0.5;entryDx=0;entryDy=0;entryPerimeter=0;" parent="1" source="UCtxVSDQXwQRLY7gghUz-10" target="UCtxVSDQXwQRLY7gghUz-14" edge="1">
          <mxGeometry relative="1" as="geometry" />
        </mxCell>
        <mxCell id="UCtxVSDQXwQRLY7gghUz-10" value="&lt;p style=&quot;line-height: 1.2;&quot;&gt;Data Streaming&lt;/p&gt;&lt;p style=&quot;line-height: 1.2;&quot;&gt;&lt;br&gt;&lt;/p&gt;" style="rounded=1;whiteSpace=wrap;html=1;verticalAlign=top;fontStyle=1;fillColor=#e1d5e7;strokeColor=#9673a6;" parent="1" vertex="1">
          <mxGeometry x="-460" y="165" width="200" height="140" as="geometry" />
        </mxCell>
        <mxCell id="UCtxVSDQXwQRLY7gghUz-11" style="edgeStyle=orthogonalEdgeStyle;rounded=0;orthogonalLoop=1;jettySize=auto;html=1;exitX=1;exitY=0.5;exitDx=0;exitDy=0;entryX=0;entryY=0.5;entryDx=0;entryDy=0;" parent="1" source="UCtxVSDQXwQRLY7gghUz-13" target="UCtxVSDQXwQRLY7gghUz-23" edge="1">
          <mxGeometry relative="1" as="geometry" />
        </mxCell>
        <mxCell id="UCtxVSDQXwQRLY7gghUz-12" value="" style="edgeStyle=orthogonalEdgeStyle;rounded=0;orthogonalLoop=1;jettySize=auto;html=1;" parent="1" source="UCtxVSDQXwQRLY7gghUz-13" target="UCtxVSDQXwQRLY7gghUz-14" edge="1">
          <mxGeometry relative="1" as="geometry" />
        </mxCell>
        <mxCell id="UCtxVSDQXwQRLY7gghUz-13" value="Stream&lt;br&gt;&amp;nbsp;Processing" style="ellipse;whiteSpace=wrap;html=1;verticalAlign=top;fontStyle=1;fillColor=#e1d5e7;strokeColor=#9673a6;" parent="1" vertex="1">
          <mxGeometry x="-185" y="145" width="220" height="180" as="geometry" />
        </mxCell>
        <mxCell id="UCtxVSDQXwQRLY7gghUz-27" style="edgeStyle=orthogonalEdgeStyle;rounded=0;orthogonalLoop=1;jettySize=auto;html=1;" parent="1" source="UCtxVSDQXwQRLY7gghUz-14" target="UCtxVSDQXwQRLY7gghUz-23" edge="1">
          <mxGeometry relative="1" as="geometry" />
        </mxCell>
        <mxCell id="UCtxVSDQXwQRLY7gghUz-14" value="Storage / querying" style="shape=cylinder3;whiteSpace=wrap;html=1;boundedLbl=1;backgroundOutline=1;size=15;verticalAlign=top;fontStyle=1;fillColor=#e1d5e7;strokeColor=#9673a6;" parent="1" vertex="1">
          <mxGeometry x="-180" y="380" width="210" height="150" as="geometry" />
        </mxCell>
        <mxCell id="UCtxVSDQXwQRLY7gghUz-16" value="" style="group;fontStyle=0" parent="1" vertex="1" connectable="0">
          <mxGeometry x="-720" y="250" width="120" height="50" as="geometry" />
        </mxCell>
        <mxCell id="UCtxVSDQXwQRLY7gghUz-17" value="" style="rounded=0;whiteSpace=wrap;html=1;" parent="UCtxVSDQXwQRLY7gghUz-16" vertex="1">
          <mxGeometry x="17.142857142857142" width="102.85714285714285" height="33.18400530944084" as="geometry" />
        </mxCell>
        <mxCell id="UCtxVSDQXwQRLY7gghUz-18" value="" style="rounded=0;whiteSpace=wrap;html=1;" parent="UCtxVSDQXwQRLY7gghUz-16" vertex="1">
          <mxGeometry x="8.571428571428571" y="8.519993363198944" width="102.85714285714285" height="33.18400530944084" as="geometry" />
        </mxCell>
        <mxCell id="UCtxVSDQXwQRLY7gghUz-19" value="CSV files" style="rounded=0;whiteSpace=wrap;html=1;fontStyle=0" parent="UCtxVSDQXwQRLY7gghUz-16" vertex="1">
          <mxGeometry y="16.815994690559155" width="102.85714285714285" height="33.18400530944084" as="geometry" />
        </mxCell>
        <mxCell id="UCtxVSDQXwQRLY7gghUz-20" value="Kafka" style="rounded=1;whiteSpace=wrap;html=1;" parent="1" vertex="1">
          <mxGeometry x="-410" y="220" width="100" height="30" as="geometry" />
        </mxCell>
        <mxCell id="UCtxVSDQXwQRLY7gghUz-21" value="Flink" style="rounded=1;whiteSpace=wrap;html=1;" parent="1" vertex="1">
          <mxGeometry x="-130" y="225" width="100" height="30" as="geometry" />
        </mxCell>
        <mxCell id="UCtxVSDQXwQRLY7gghUz-22" value="" style="shape=cylinder3;whiteSpace=wrap;html=1;boundedLbl=1;backgroundOutline=1;size=15;" parent="1" vertex="1">
          <mxGeometry x="-120" y="450" width="90" height="50" as="geometry" />
        </mxCell>
        <mxCell id="UCtxVSDQXwQRLY7gghUz-23" value="&lt;p style=&quot;line-height: 1.2;&quot;&gt;Data Visualisation&lt;/p&gt;&lt;p style=&quot;line-height: 1.2;&quot;&gt;&lt;br&gt;&lt;/p&gt;" style="rounded=1;whiteSpace=wrap;html=1;verticalAlign=top;fontStyle=1;fillColor=#e1d5e7;strokeColor=#9673a6;" parent="1" vertex="1">
          <mxGeometry x="120" y="165" width="220" height="140" as="geometry" />
        </mxCell>
        <mxCell id="UCtxVSDQXwQRLY7gghUz-24" value="Grafana" style="rounded=1;whiteSpace=wrap;html=1;" parent="1" vertex="1">
          <mxGeometry x="180" y="215" width="100" height="30" as="geometry" />
        </mxCell>
        <mxCell id="UCtxVSDQXwQRLY7gghUz-25" value="Store raw data" style="text;html=1;strokeColor=none;fillColor=none;align=center;verticalAlign=middle;whiteSpace=wrap;rounded=0;" parent="1" vertex="1">
          <mxGeometry x="-390" y="470" width="60" height="30" as="geometry" />
        </mxCell>
        <mxCell id="Yr-ZDy5coHot1IQStwBp-1" value="" style="shape=image;imageAspect=0;aspect=fixed;verticalLabelPosition=bottom;verticalAlign=top;fillColor=none;image=https://www.maltego.com/images/uploads/alienvault-otx-logo.png;rotation=-90;" parent="1" vertex="1">
          <mxGeometry x="-790.15" y="221.70000000000002" width="87.29" height="70" as="geometry" />
        </mxCell>
        <mxCell id="Yr-ZDy5coHot1IQStwBp-3" value="" style="shape=image;imageAspect=0;aspect=fixed;verticalLabelPosition=bottom;verticalAlign=top;fillColor=none;image=https://flink.apache.org/img/logo/png/1000/flink_squirrel_1000.png;" parent="1" vertex="1">
          <mxGeometry x="-110.85" y="258.3" width="61.7" height="61.7" as="geometry" />
        </mxCell>
        <mxCell id="Yr-ZDy5coHot1IQStwBp-4" value="" style="shape=image;verticalLabelPosition=bottom;labelBackgroundColor=default;verticalAlign=top;aspect=fixed;imageAspect=0;image=https://upload.wikimedia.org/wikipedia/commons/thumb/0/05/Apache_kafka.svg/1261px-Apache_kafka.svg.png;" parent="1" vertex="1">
          <mxGeometry x="-375" y="255" width="30" height="48.75" as="geometry" />
        </mxCell>
        <mxCell id="Yr-ZDy5coHot1IQStwBp-5" value="" style="shape=image;imageAspect=0;aspect=fixed;verticalLabelPosition=bottom;verticalAlign=top;fillColor=none;image=https://aws1.discourse-cdn.com/business7/uploads/grafana/original/2X/a/a7f38198d3aa26d70bae13c3379e5b93a010e7d7.png;" parent="1" vertex="1">
          <mxGeometry x="202" y="244" width="56" height="56" as="geometry" />
        </mxCell>
        <mxCell id="Yr-ZDy5coHot1IQStwBp-6" value="" style="shape=image;imageAspect=0;aspect=fixed;verticalLabelPosition=bottom;verticalAlign=top;fillColor=none;image=https://www.ovhcloud.com/sites/default/files/styles/large_screens_1x/public/2022-02/apache_cassandra_830.png;" parent="1" vertex="1">
          <mxGeometry x="-129" y="435" width="105.2" height="70" as="geometry" />
        </mxCell>
      </root>
    </mxGraphModel>
  </diagram>
</mxfile>
